<svg xmlns="http://www.w3.org/2000/svg" version="1.1" xmlns:xlink="http://www.w3.org/1999/xlink" xmlns:svgjs="http://svgjs.dev/svgjs" width="100%" height="100%" viewBox="0 0 1000 600"><rect width="1000" height="600" x="0" y="0" fill="#ffffff"/><g><rect width="333.3333333333333" height="333.3333333333333" y="112.77488551442349" fill="#616161" transform="matrix(1.3804121891924106,0,0,1.3804121891924104,0,-85.7445251468145)" x="90.55265808105469"/><path d="M259.3143831184374 354.4415335355161L259.3143831184374 354.4415335355161Q242.75764307046762 354.4415335355161 227.77219293917693 349.2039004799193Q212.81584076930622 343.9662674243226 201.49673377693324 334.2184503486286Q190.17762678456026 324.4706332729347 183.6887813879043 310.4454158685034Q177.1999359912483 296.4201984640721 177.1999359912483 279.0196175349229L177.1999359912483 279.0196175349229Q177.1999359912483 263.30671836813264 183.57238954222436 249.68887242358107Q189.97394105462038 236.07102647902957 201.49673377693324 225.91583794345584Q213.0195264992461 215.76064940788217 228.2959562447366 210.0865469309857Q243.6014839516471 204.4415424155092 261.2057506107362 204.4415424155092L261.2057506107362 204.4415424155092Q275.0272822852276 204.4415424155092 287.27752404304 207.7878079788071Q299.5277658008524 211.13407354210503 309.0718971466065 216.8081760190015Q318.61602849236056 222.453180534478 324.26103300783706 229.37849535243373L324.26103300783706 229.37849535243373L309.59566045216616 245.29508024916385Q302.67034563421043 239.41729204232746 294.9302878964952 235.22718559785008Q287.1902301587801 231.0370791533727 278.69362542414535 228.73834020119412Q270.19702068951057 226.43960124901554 261.2057506107362 226.43960124901554L261.2057506107362 226.43960124901554Q248.4317455473641 226.43960124901554 237.43271613061094 230.42602196355307Q226.43368671385775 234.38334471667062 218.1407677091629 241.5123452645662Q209.87694666588803 248.64134581246174 205.36676264579083 258.1854771582158Q200.85657862569366 267.7005105425499 200.85657862569366 279.0196175349229L200.85657862569366 279.0196175349229Q200.85657862569366 291.5899368683551 205.68684022141065 301.5414396739889Q210.48800385570766 311.49294247962274 218.86821674466245 318.41825729757846Q227.24842963361726 325.3144741541142 238.04377332043055 328.89352340877196Q248.83911700724386 332.4434747020097 260.76928118943647 332.4434747020097L260.76928118943647 332.4434747020097Q271.4773309919898 332.4434747020097 280.9923643763239 330.02834390415126Q290.536495722078 327.61321310629273 297.6654962699736 323.13212704761554Q304.7653988564491 318.6219430275183 308.75181957098664 312.74415482068196Q312.73824028552417 306.8954645752656 312.53455455558435 299.9701497573099L312.53455455558435 299.9701497573099L312.3308688256444 296.62388419401196L315.67713438894236 300.3775212171896L260.76928118943647 300.3775212171896L260.76928118943647 278.3794623836833L336.1911971900297 278.3794623836833Q336.6276666113294 281.1146707571616 336.8313523412693 283.09333213372037Q337.0350380712091 285.10109147169914 337.151429916889 286.5559895426982Q337.23872380114904 288.03998557511727 337.23872380114904 289.29119791617654L337.23872380114904 289.29119791617654Q337.23872380114904 304.8004113530269 331.47732743999256 316.93426126515936Q325.71593107883615 329.09720913871183 315.24066496764266 337.3610301819867Q304.7653988564491 345.65394918668153 290.62378960633794 350.0477413610988Q276.4821803562267 354.4415335355161 259.3143831184374 354.4415335355161Z " fill="#050505" transform="matrix(1.3804121891924106,0,0,1.3804121891924104,0,-85.7445251468145)"/><path d="M572.2077556238103 354.44154118478076L572.2077556238103 354.44154118478076Q558.2609964056024 354.44154118478076 546.3686353294958 351.316541193979Q534.5052094384891 348.1915412031773 524.7251168746836 341.94154122157374Q514.9160891257782 335.69154123997026 507.2193298891738 326.1139949718649L507.2193298891738 326.1139949718649L521.8026631795819 307.7690876184546Q533.8686353662888 322.14987461316264 545.8478019976955 328.19732829906604Q557.8269686291021 334.24478198496945 573.2494222874109 334.24478198496945L573.2494222874109 334.24478198496945Q582.8269685555163 334.24478198496945 591.2760426047209 331.640615325968Q599.7251166539256 329.0364486669665 605.0202555272285 324.11746719996376Q610.3443295856316 319.22742091806106 610.3443295856316 312.3697820493572L610.3443295856316 312.3697820493572Q610.3443295856316 307.7690876184546 607.7401629266301 304.44154133195275Q605.1359962676288 301.11399504545085 600.8535888728263 298.7123746821495Q596.6001166631239 296.3107543188482 591.0734963090208 294.66144876814724Q585.5468759549178 292.9832080323463 579.7019685647144 291.82580062834563Q573.8859963596112 290.69732840944505 568.243635265108 289.8582080415446L568.243635265108 289.8582080415446Q555.5410890062009 287.77487471434335 545.5584501466953 284.33158768744147Q535.5468761020898 280.8883006605395 528.5734964929858 275.59316178723657Q521.6001168838818 270.2690877288336 518.0410891165799 263.09316182402955Q514.5109965343779 255.8883007341255 514.5109965343779 246.51330076172025L514.5109965343779 246.51330076172025Q514.5109965343779 236.93575449361487 518.8802094844804 229.12325451661047Q523.2494224345828 221.3107545396061 531.1776631519872 215.784134185503Q539.0769686842916 210.28644901649994 549.7251168010976 207.3639953213983Q560.3443297328035 204.44154162629667 572.8443296960106 204.44154162629667L572.8443296960106 204.44154162629667Q585.9519685463179 204.44154162629667 596.802662958824 207.3639953213983Q607.62442218623 210.28644901649994 616.1603017907348 216.01561566630315Q624.7251165803398 221.74478231610635 630.3385424897428 230.07811562491105L630.3385424897428 230.07811562491105L614.9160888314341 246.10820817032004Q609.9103018091314 239.22163411651616 603.2552092361277 234.44732857501347Q596.6001166631239 229.6440878484108 588.7876166861195 227.15566192980938Q580.9751167091151 224.63830082610798 572.2077556238103 224.63830082610798L572.2077556238103 224.63830082610798Q562.2251167643046 224.63830082610798 554.6151630830004 227.15566192980938Q547.0052094016961 229.6440878484108 542.5202557111936 234.1290415389133Q538.035302020691 238.61399522941582 538.035302020691 244.8639952110193L538.035302020691 244.8639952110193Q538.035302020691 249.8697822333221 540.6394686796925 253.7181618516243Q543.243635338694 257.56654146992645 548.0468760652967 260.28644886932796Q552.8501167918994 262.97742108362945 559.9103019563033 264.85820811513054Q566.9994223058072 266.73899514663157 576.1718759825125 268.1857544016324L576.1718759825125 268.1857544016324Q588.2667833543193 270.06654143313347 598.7702555456251 273.07580068353514Q609.302662922031 276.1139951190369 617.2019684543354 280.6857543648394Q625.13020917174 285.286448795742 629.4994221218424 291.94154136874573Q633.8686350719447 298.5966339417495 633.8686350719447 308.2031153949548L633.8686350719447 308.2031153949548Q633.8686350719447 322.14987461316264 626.2876165757405 332.5665412491685Q618.6776628944363 342.98320788517435 604.9334499719287 348.7123745349776Q591.1603018643209 354.44154118478076 572.2077556238103 354.44154118478076Z " fill="#616161" transform="matrix(1.3804121891924106,0,0,1.3804121891924104,0,-85.7445251468145)"/></g></svg>